<svg xmlns="http://www.w3.org/2000/svg" viewBox="0 0 1200 630" width="1200" height="630">
  <defs>
    <linearGradient id="g" x1="0%" y1="0%" x2="100%" y2="100%">
      <stop offset="0%" style="stop-color:#000f0a"/>
      <stop offset="100%" style="stop-color:#001a10"/>
    </linearGradient>
  </defs>
  <rect width="1200" height="630" fill="url(#g)"/>
  <!-- Neural network nodes -->
  <!-- Layer 1 -->
  <circle cx="300" cy="200" r="12" fill="rgba(0,255,65,0.2)" stroke="rgba(0,255,65,0.5)" stroke-width="2"/>
  <circle cx="300" cy="315" r="12" fill="rgba(0,255,65,0.2)" stroke="rgba(0,255,65,0.5)" stroke-width="2"/>
  <circle cx="300" cy="430" r="12" fill="rgba(0,255,65,0.2)" stroke="rgba(0,255,65,0.5)" stroke-width="2"/>
  <!-- Layer 2 -->
  <circle cx="500" cy="170" r="14" fill="rgba(0,255,65,0.25)" stroke="rgba(0,255,65,0.6)" stroke-width="2"/>
  <circle cx="500" cy="270" r="14" fill="rgba(0,255,65,0.25)" stroke="rgba(0,255,65,0.6)" stroke-width="2"/>
  <circle cx="500" cy="370" r="14" fill="rgba(0,255,65,0.25)" stroke="rgba(0,255,65,0.6)" stroke-width="2"/>
  <circle cx="500" cy="460" r="14" fill="rgba(0,255,65,0.25)" stroke="rgba(0,255,65,0.6)" stroke-width="2"/>
  <!-- Layer 3 (center) -->
  <circle cx="700" cy="230" r="18" fill="rgba(0,255,65,0.35)" stroke="rgba(0,255,65,0.8)" stroke-width="2"/>
  <circle cx="700" cy="315" r="22" fill="rgba(0,255,65,0.4)" stroke="#00FF41" stroke-width="2"/>
  <circle cx="700" cy="400" r="18" fill="rgba(0,255,65,0.35)" stroke="rgba(0,255,65,0.8)" stroke-width="2"/>
  <!-- Layer 4 -->
  <circle cx="900" cy="270" r="14" fill="rgba(0,255,65,0.25)" stroke="rgba(0,255,65,0.6)" stroke-width="2"/>
  <circle cx="900" cy="360" r="14" fill="rgba(0,255,65,0.25)" stroke="rgba(0,255,65,0.6)" stroke-width="2"/>
  <!-- Connections -->
  <line x1="312" y1="200" x2="486" y2="170" stroke="rgba(0,255,65,0.12)" stroke-width="1"/>
  <line x1="312" y1="200" x2="486" y2="270" stroke="rgba(0,255,65,0.12)" stroke-width="1"/>
  <line x1="312" y1="315" x2="486" y2="270" stroke="rgba(0,255,65,0.12)" stroke-width="1"/>
  <line x1="312" y1="315" x2="486" y2="370" stroke="rgba(0,255,65,0.12)" stroke-width="1"/>
  <line x1="312" y1="430" x2="486" y2="370" stroke="rgba(0,255,65,0.12)" stroke-width="1"/>
  <line x1="312" y1="430" x2="486" y2="460" stroke="rgba(0,255,65,0.12)" stroke-width="1"/>
  <line x1="514" y1="170" x2="682" y2="230" stroke="rgba(0,255,65,0.15)" stroke-width="1"/>
  <line x1="514" y1="270" x2="682" y2="315" stroke="rgba(0,255,65,0.2)" stroke-width="1.5"/>
  <line x1="514" y1="370" x2="682" y2="315" stroke="rgba(0,255,65,0.15)" stroke-width="1"/>
  <line x1="514" y1="460" x2="682" y2="400" stroke="rgba(0,255,65,0.12)" stroke-width="1"/>
  <line x1="718" y1="230" x2="886" y2="270" stroke="rgba(0,255,65,0.2)" stroke-width="1.5"/>
  <line x1="718" y1="315" x2="886" y2="270" stroke="rgba(0,255,65,0.15)" stroke-width="1"/>
  <line x1="718" y1="315" x2="886" y2="360" stroke="rgba(0,255,65,0.15)" stroke-width="1"/>
  <line x1="718" y1="400" x2="886" y2="360" stroke="rgba(0,255,65,0.12)" stroke-width="1"/>
  <!-- Glow center -->
  <circle cx="700" cy="315" r="60" fill="rgba(0,255,65,0.04)"/>
  <!-- Label -->
  <rect x="80" y="60" width="100" height="40" rx="20" fill="rgba(0,255,65,0.1)" stroke="rgba(0,255,65,0.3)" stroke-width="1"/>
  <text x="130" y="86" font-family="system-ui,sans-serif" font-size="18" font-weight="700" fill="#00FF41" text-anchor="middle" letter-spacing="3">IA</text>
  <line x1="80" y1="580" x2="200" y2="580" stroke="rgba(0,255,65,0.4)" stroke-width="2"/>
  <text x="80" y="600" font-family="system-ui,sans-serif" font-size="14" fill="rgba(0,255,65,0.5)" letter-spacing="3">PRODIGY LAB DENTAL</text>
</svg>